<svg width="68" height="24" viewBox="0 0 68 24" fill="none" xmlns="http://www.w3.org/2000/svg">
<path d="M18.36 11.1601C18 15.8641 14.256 19.6081 9.55198 19.9681C9.11998 19.9921 8.80798 20.3521 8.80798 20.7601C8.80798 21.2401 9.21598 21.6001 9.67198 21.5521C15.168 21.1201 19.56 16.7521 19.968 11.2561C19.992 10.8001 19.632 10.3921 19.176 10.3921C18.744 10.3921 18.408 10.7281 18.36 11.1601Z" fill="white"/>
<path d="M8.80798 3.2399C8.80798 2.7599 9.21598 2.3999 9.69598 2.4479C13.68 2.8799 16.8 6.2879 16.8 10.3919C16.8 14.5199 13.68 17.9039 9.69598 18.3359C9.21598 18.3839 8.80798 18.0239 8.80798 17.5439C8.80798 17.1359 9.09598 16.7999 9.50398 16.7519C12.72 16.3919 15.216 13.6799 15.216 10.3919C15.216 7.1039 12.72 4.3679 9.50398 4.0319C9.09598 3.9839 8.80798 3.6479 8.80798 3.2399Z" fill="white"/>
<path d="M4.08003 9.57594C4.48803 7.22394 6.57603 5.47194 9.07203 5.61594C11.496 5.73594 13.488 7.72794 13.608 10.1519C13.728 12.6479 11.976 14.7359 9.64803 15.1439C9.21603 15.2159 8.83203 14.8799 8.83203 14.4239V11.1359C8.83203 10.7279 8.52003 10.4159 8.11203 10.4159H4.82403C4.34403 10.3919 3.98403 10.0079 4.08003 9.57594Z" fill="white"/>
<path d="M32.14 18.29C31.0867 18.29 30.2 18.01 29.48 17.45C28.7667 16.89 28.2733 16.1367 28 15.19L30.07 14.7C30.1633 15.1467 30.4 15.53 30.78 15.85C31.1667 16.1633 31.5967 16.32 32.07 16.32C32.3833 16.32 32.71 16.24 33.05 16.08C33.39 15.92 33.6433 15.66 33.81 15.3C33.9233 15.06 33.99 14.7867 34.01 14.48C34.03 14.1667 34.04 13.8033 34.04 13.39V3.6H36.16V13.39C36.16 13.8167 36.1567 14.1967 36.15 14.53C36.15 14.8633 36.1167 15.1767 36.05 15.47C35.99 15.7633 35.87 16.0667 35.69 16.38C35.31 17.04 34.81 17.5233 34.19 17.83C33.57 18.1367 32.8867 18.29 32.14 18.29ZM42.2156 18.3C41.4156 18.3 40.7456 18.1533 40.2056 17.86C39.6656 17.56 39.2556 17.1667 38.9756 16.68C38.7023 16.1867 38.5656 15.6467 38.5656 15.06C38.5656 14.5133 38.6623 14.0333 38.8556 13.62C39.049 13.2067 39.3356 12.8567 39.7156 12.57C40.0956 12.2767 40.5623 12.04 41.1156 11.86C41.5956 11.72 42.139 11.5967 42.7456 11.49C43.3523 11.3833 43.989 11.2833 44.6556 11.19C45.329 11.0967 45.9956 11.0033 46.6556 10.91L45.8956 11.33C45.909 10.4833 45.729 9.85667 45.3556 9.45C44.989 9.03667 44.3556 8.83 43.4556 8.83C42.889 8.83 42.369 8.96333 41.8956 9.23C41.4223 9.49 41.0923 9.92333 40.9056 10.53L38.9556 9.93C39.2223 9.00333 39.729 8.26667 40.4756 7.72C41.229 7.17333 42.229 6.9 43.4756 6.9C44.4423 6.9 45.2823 7.06667 45.9956 7.4C46.7156 7.72667 47.2423 8.24667 47.5756 8.96C47.749 9.31333 47.8556 9.68667 47.8956 10.08C47.9356 10.4733 47.9556 10.8967 47.9556 11.35V18H46.1056V15.53L46.4656 15.85C46.019 16.6767 45.449 17.2933 44.7556 17.7C44.069 18.1 43.2223 18.3 42.2156 18.3ZM42.5856 16.59C43.179 16.59 43.689 16.4867 44.1156 16.28C44.5423 16.0667 44.8856 15.7967 45.1456 15.47C45.4056 15.1433 45.5756 14.8033 45.6556 14.45C45.769 14.13 45.8323 13.77 45.8456 13.37C45.8656 12.97 45.8756 12.65 45.8756 12.41L46.5556 12.66C45.8956 12.76 45.2956 12.85 44.7556 12.93C44.2156 13.01 43.7256 13.09 43.2856 13.17C42.8523 13.2433 42.4656 13.3333 42.1256 13.44C41.839 13.54 41.5823 13.66 41.3556 13.8C41.1356 13.94 40.959 14.11 40.8256 14.31C40.699 14.51 40.6356 14.7533 40.6356 15.04C40.6356 15.32 40.7056 15.58 40.8456 15.82C40.9856 16.0533 41.199 16.24 41.4856 16.38C41.7723 16.52 42.139 16.59 42.5856 16.59ZM50.5523 18V7.2H52.4123V9.82L52.1523 9.48C52.2857 9.13333 52.459 8.81667 52.6723 8.53C52.8857 8.23667 53.1323 7.99667 53.4123 7.81C53.6857 7.61 53.989 7.45667 54.3223 7.35C54.6623 7.23667 55.009 7.17 55.3623 7.15C55.7157 7.12333 56.0557 7.14 56.3823 7.2V9.16C56.029 9.06667 55.6357 9.04 55.2023 9.08C54.7757 9.12 54.3823 9.25667 54.0223 9.49C53.6823 9.71 53.4123 9.97667 53.2123 10.29C53.019 10.6033 52.879 10.9533 52.7923 11.34C52.7057 11.72 52.6623 12.1233 52.6623 12.55V18H50.5523ZM61.0242 18.3C60.2242 18.3 59.5542 18.1533 59.0142 17.86C58.4742 17.56 58.0642 17.1667 57.7842 16.68C57.5109 16.1867 57.3742 15.6467 57.3742 15.06C57.3742 14.5133 57.4709 14.0333 57.6642 13.62C57.8576 13.2067 58.1442 12.8567 58.5242 12.57C58.9042 12.2767 59.3709 12.04 59.9242 11.86C60.4042 11.72 60.9476 11.5967 61.5542 11.49C62.1609 11.3833 62.7976 11.2833 63.4642 11.19C64.1376 11.0967 64.8042 11.0033 65.4642 10.91L64.7042 11.33C64.7176 10.4833 64.5376 9.85667 64.1642 9.45C63.7976 9.03667 63.1642 8.83 62.2642 8.83C61.6976 8.83 61.1776 8.96333 60.7042 9.23C60.2309 9.49 59.9009 9.92333 59.7142 10.53L57.7642 9.93C58.0309 9.00333 58.5376 8.26667 59.2842 7.72C60.0376 7.17333 61.0376 6.9 62.2842 6.9C63.2509 6.9 64.0909 7.06667 64.8042 7.4C65.5242 7.72667 66.0509 8.24667 66.3842 8.96C66.5576 9.31333 66.6642 9.68667 66.7042 10.08C66.7442 10.4733 66.7642 10.8967 66.7642 11.35V18H64.9142V15.53L65.2742 15.85C64.8276 16.6767 64.2576 17.2933 63.5642 17.7C62.8776 18.1 62.0309 18.3 61.0242 18.3ZM61.3942 16.59C61.9876 16.59 62.4976 16.4867 62.9242 16.28C63.3509 16.0667 63.6942 15.7967 63.9542 15.47C64.2142 15.1433 64.3842 14.8033 64.4642 14.45C64.5776 14.13 64.6409 13.77 64.6542 13.37C64.6742 12.97 64.6842 12.65 64.6842 12.41L65.3642 12.66C64.7042 12.76 64.1042 12.85 63.5642 12.93C63.0242 13.01 62.5342 13.09 62.0942 13.17C61.6609 13.2433 61.2742 13.3333 60.9342 13.44C60.6476 13.54 60.3909 13.66 60.1642 13.8C59.9442 13.94 59.7676 14.11 59.6342 14.31C59.5076 14.51 59.4442 14.7533 59.4442 15.04C59.4442 15.32 59.5142 15.58 59.6542 15.82C59.7942 16.0533 60.0076 16.24 60.2942 16.38C60.5809 16.52 60.9476 16.59 61.3942 16.59Z" fill="white"/>
</svg>
